<?xml version="1.0" encoding="UTF-8" standalone="no"?>
<!-- Created with Inkscape (http://www.inkscape.org/) -->

<svg
   xmlns:dc="http://purl.org/dc/elements/1.1/"
   xmlns:cc="http://creativecommons.org/ns#"
   xmlns:rdf="http://www.w3.org/1999/02/22-rdf-syntax-ns#"
   xmlns:svg="http://www.w3.org/2000/svg"
   xmlns="http://www.w3.org/2000/svg"
   xmlns:sodipodi="http://sodipodi.sourceforge.net/DTD/sodipodi-0.dtd"
   xmlns:inkscape="http://www.inkscape.org/namespaces/inkscape"
   width="445"
   height="285"
   id="svg3044"
   version="1.1"
   inkscape:version="0.48.3.1 r9886"
   sodipodi:docname="New document 2">
  <defs
     id="defs3046" />
  <sodipodi:namedview
     id="base"
     pagecolor="#ffffff"
     bordercolor="#666666"
     borderopacity="1.0"
     inkscape:pageopacity="0.0"
     inkscape:pageshadow="2"
     inkscape:zoom="0.35"
     inkscape:cx="371.78571"
     inkscape:cy="-240.35715"
     inkscape:document-units="px"
     inkscape:current-layer="layer1"
     showgrid="false"
     inkscape:window-width="1863"
     inkscape:window-height="1056"
     inkscape:window-x="57"
     inkscape:window-y="24"
     inkscape:window-maximized="1"
     fit-margin-top="0"
     fit-margin-left="0"
     fit-margin-right="0"
     fit-margin-bottom="0" />
  <metadata
     id="metadata3049">
    <rdf:RDF>
      <cc:Work
         rdf:about="">
        <dc:format>image/svg+xml</dc:format>
        <dc:type
           rdf:resource="http://purl.org/dc/dcmitype/StillImage" />
        <dc:title></dc:title>
      </cc:Work>
    </rdf:RDF>
  </metadata>
  <g
     inkscape:label="Layer 1"
     inkscape:groupmode="layer"
     id="layer1"
     transform="translate(-3.2142857,-7.0050357)">
    <g
       transform="translate(-4.2857143,-0.49496431)"
       id="g4">
      <title
         id="title6">RBT</title>
      <line
         style="fill:none;stroke:#000000;stroke-width:3"
         id="svg_1"
         y2="30"
         x2="110"
         y1="110"
         x1="30" />
      <!-- leaf -->
      <!-- leaf -->
      <ellipse
         d="m 50,110 c 0,11.04569 -8.954305,20 -20,20 -11.045695,0 -20,-8.95431 -20,-20 0,-11.045695 8.954305,-20 20,-20 11.045695,0 20,8.954305 20,20 z"
         style="fill:#000000;stroke:#000000;stroke-width:5"
         sodipodi:ry="20"
         sodipodi:rx="20"
         sodipodi:cy="110"
         sodipodi:cx="30"
         cy="110"
         cx="30"
         id="svg30110"
         ry="20"
         rx="20" />
      <text
         style="font-size:24px;text-anchor:middle;fill:#ffffff;stroke:#ffffff;stroke-width:0;font-family:serif"
         xml:space="preserve"
         font-size="24"
         id="svgt"
         y="117"
         x="30">5</text>
      <line
         style="fill:none;stroke:#000000;stroke-width:3"
         id="line11"
         y2="30"
         x2="110"
         y1="110"
         x1="270" />
      <line
         style="fill:none;stroke:#000000;stroke-width:3"
         id="line13"
         y2="110"
         x2="270"
         y1="190"
         x1="190" />
      <!-- leaf -->
      <!-- leaf -->
      <ellipse
         d="m 210,190 c 0,11.04569 -8.95431,20 -20,20 -11.04569,0 -20,-8.95431 -20,-20 0,-11.04569 8.95431,-20 20,-20 11.04569,0 20,8.95431 20,20 z"
         style="fill:#000000;stroke:#000000;stroke-width:5"
         sodipodi:ry="20"
         sodipodi:rx="20"
         sodipodi:cy="190"
         sodipodi:cx="190"
         cy="190"
         cx="190"
         id="svg190190"
         ry="20"
         rx="20" />
      <text
         style="font-size:24px;text-anchor:middle;fill:#ffffff;stroke:#ffffff;stroke-width:0;font-family:serif"
         xml:space="preserve"
         font-size="24"
         id="text16"
         y="197"
         x="190">12</text>
      <line
         style="fill:none;stroke:#000000;stroke-width:3"
         id="line18"
         y2="110"
         x2="270"
         y1="190"
         x1="350" />
      <!-- leaf -->
      <line
         style="fill:none;stroke:#000000;stroke-width:3"
         id="line20"
         y2="190"
         x2="350"
         y1="270"
         x1="430" />
      <!-- leaf -->
      <!-- leaf -->
      <ellipse
         d="m 450,270 c 0,11.04569 -8.95431,20 -20,20 -11.04569,0 -20,-8.95431 -20,-20 0,-11.04569 8.95431,-20 20,-20 11.04569,0 20,8.95431 20,20 z"
         style="fill:#7f0000;stroke:#7f0000;stroke-width:5"
         sodipodi:ry="20"
         sodipodi:rx="20"
         sodipodi:cy="270"
         sodipodi:cx="430"
         cy="270"
         cx="430"
         id="svg430270"
         ry="20"
         rx="20" />
      <text
         style="font-size:24px;text-anchor:middle;fill:#ffffff;stroke:#ffffff;stroke-width:0;font-family:serif"
         xml:space="preserve"
         font-size="24"
         id="text23"
         y="277"
         x="430">30</text>
      <ellipse
         d="m 370,190 c 0,11.04569 -8.95431,20 -20,20 -11.04569,0 -20,-8.95431 -20,-20 0,-11.04569 8.95431,-20 20,-20 11.04569,0 20,8.95431 20,20 z"
         style="fill:#000000;stroke:#000000;stroke-width:5"
         sodipodi:ry="20"
         sodipodi:rx="20"
         sodipodi:cy="190"
         sodipodi:cx="350"
         cy="190"
         cx="350"
         id="svg350190"
         ry="20"
         rx="20" />
      <text
         style="font-size:24px;text-anchor:middle;fill:#ffffff;stroke:#ffffff;stroke-width:0;font-family:serif"
         xml:space="preserve"
         font-size="24"
         id="text26"
         y="197"
         x="350">20</text>
      <ellipse
         d="m 290,110 c 0,11.04569 -8.95431,20 -20,20 -11.04569,0 -20,-8.95431 -20,-20 0,-11.045695 8.95431,-20 20,-20 11.04569,0 20,8.954305 20,20 z"
         style="fill:#7f0000;stroke:#7f0000;stroke-width:5"
         sodipodi:ry="20"
         sodipodi:rx="20"
         sodipodi:cy="110"
         sodipodi:cx="270"
         cy="110"
         cx="270"
         id="svg270110"
         ry="20"
         rx="20" />
      <text
         style="font-size:24px;text-anchor:middle;fill:#ffffff;stroke:#ffffff;stroke-width:0;font-family:serif"
         xml:space="preserve"
         font-size="24"
         id="text29"
         y="117"
         x="270">15</text>
      <ellipse
         d="m 130,30 c 0,11.045695 -8.95431,20 -20,20 -11.045695,0 -20,-8.954305 -20,-20 0,-11.045695 8.954305,-20 20,-20 11.04569,0 20,8.954305 20,20 z"
         style="fill:#000000;stroke:#000000;stroke-width:5"
         sodipodi:ry="20"
         sodipodi:rx="20"
         sodipodi:cy="30"
         sodipodi:cx="110"
         cy="30"
         cx="110"
         id="svg11030"
         ry="20"
         rx="20" />
      <text
         style="font-size:24px;text-anchor:middle;fill:#ffffff;stroke:#ffffff;stroke-width:0;font-family:serif"
         xml:space="preserve"
         font-size="24"
         id="text32"
         y="37"
         x="110">10</text>
    </g>
  </g>
</svg>
