<?xml version="1.0" encoding="UTF-8" standalone="no"?>
<!-- Created with Inkscape (http://www.inkscape.org/) -->

<svg
   xmlns:dc="http://purl.org/dc/elements/1.1/"
   xmlns:cc="http://creativecommons.org/ns#"
   xmlns:rdf="http://www.w3.org/1999/02/22-rdf-syntax-ns#"
   xmlns:svg="http://www.w3.org/2000/svg"
   xmlns="http://www.w3.org/2000/svg"
   xmlns:sodipodi="http://sodipodi.sourceforge.net/DTD/sodipodi-0.dtd"
   xmlns:inkscape="http://www.inkscape.org/namespaces/inkscape"
   width="736.42859"
   height="205"
   id="svg2"
   version="1.1"
   inkscape:version="0.48.3.1 r9886"
   sodipodi:docname="New document 1">
  <defs
     id="defs4" />
  <sodipodi:namedview
     id="base"
     pagecolor="#ffffff"
     bordercolor="#666666"
     borderopacity="1.0"
     inkscape:pageopacity="0.0"
     inkscape:pageshadow="2"
     inkscape:zoom="0.35"
     inkscape:cx="371.78571"
     inkscape:cy="-321.78572"
     inkscape:document-units="px"
     inkscape:current-layer="layer1-5"
     showgrid="false"
     fit-margin-top="0"
     fit-margin-left="0"
     fit-margin-right="0"
     fit-margin-bottom="0"
     inkscape:window-width="1863"
     inkscape:window-height="1056"
     inkscape:window-x="57"
     inkscape:window-y="24"
     inkscape:window-maximized="1" />
  <metadata
     id="metadata7">
    <rdf:RDF>
      <cc:Work
         rdf:about="">
        <dc:format>image/svg+xml</dc:format>
        <dc:type
           rdf:resource="http://purl.org/dc/dcmitype/StillImage" />
        <dc:title></dc:title>
      </cc:Work>
    </rdf:RDF>
  </metadata>
  <g
     inkscape:label="Layer 1"
     inkscape:groupmode="layer"
     id="layer1"
     transform="translate(-3.21429,-5.57646)">
    <g
       transform="translate(-8.5714286,-172.85715)"
       id="layer1-5"
       inkscape:label="Layer 1">
      <g
         transform="translate(4.2857186,170.93361)"
         id="g3148">
        <title
           id="title3150">RBT</title>
        <!-- leaf -->
        <!-- leaf -->
        <ellipse
           style="fill:#7f0000;stroke:#7f0000;stroke-width:5"
           sodipodi:ry="20"
           sodipodi:rx="20"
           sodipodi:cy="30"
           sodipodi:cx="30"
           d="M 50,30 C 50,41.045695 41.045695,50 30,50 18.954305,50 10,41.045695 10,30 10,18.954305 18.954305,10 30,10 c 11.045695,0 20,8.954305 20,20 z"
           rx="20"
           ry="20"
           id="svg3030"
           cx="30"
           cy="30" />
        <text
           style="font-size:24px;text-anchor:middle;fill:#ffffff;stroke:#ffffff;stroke-width:0;font-family:serif"
           x="30"
           y="37"
           id="svgt"
           font-size="24"
           xml:space="preserve">1</text>
      </g>
      <g
         id="g3255"
         transform="translate(92.85714,170.93361)">
        <title
           id="title3257">RBT</title>
        <!-- leaf -->
        <line
           x1="110"
           y1="110"
           x2="30"
           y2="30"
           id="svg_1"
           style="fill:none;stroke:#000000;stroke-width:3" />
        <!-- leaf -->
        <!-- leaf -->
        <ellipse
           rx="20"
           ry="20"
           id="svg110110"
           cx="110"
           cy="110"
           sodipodi:cx="110"
           sodipodi:cy="110"
           sodipodi:rx="20"
           sodipodi:ry="20"
           style="fill:#7f0000;stroke:#7f0000;stroke-width:5"
           d="m 130,110 c 0,11.04569 -8.95431,20 -20,20 -11.045695,0 -20,-8.95431 -20,-20 0,-11.045695 8.954305,-20 20,-20 11.04569,0 20,8.954305 20,20 z" />
        <text
           x="110"
           y="117"
           id="svgt-0"
           font-size="24"
           xml:space="preserve"
           style="font-size:24px;text-anchor:middle;fill:#ffffff;stroke:#ffffff;stroke-width:0;font-family:serif">2</text>
        <ellipse
           rx="20"
           ry="20"
           id="svg3030-0"
           cx="30"
           cy="30"
           sodipodi:cx="30"
           sodipodi:cy="30"
           sodipodi:rx="20"
           sodipodi:ry="20"
           style="fill:#000000;stroke:#000000;stroke-width:5"
           d="M 50,30 C 50,41.045695 41.045695,50 30,50 18.954305,50 10,41.045695 10,30 10,18.954305 18.954305,10 30,10 c 11.045695,0 20,8.954305 20,20 z" />
        <text
           x="30"
           y="37"
           id="text3263"
           font-size="24"
           xml:space="preserve"
           style="font-size:24px;text-anchor:middle;fill:#ffffff;stroke:#ffffff;stroke-width:0;font-family:serif">1</text>
      </g>
      <g
         id="g3409"
         transform="translate(230,170.93362)">
        <title
           id="title3411">RBT</title>
        <line
           x1="30"
           y1="110"
           x2="110"
           y2="30"
           id="svg_1-7"
           style="fill:none;stroke:#000000;stroke-width:3" />
        <!-- leaf -->
        <!-- leaf -->
        <ellipse
           rx="20"
           ry="20"
           id="svg30110"
           cx="30"
           cy="110"
           sodipodi:cx="30"
           sodipodi:cy="110"
           sodipodi:rx="20"
           sodipodi:ry="20"
           style="fill:#000000;stroke:#000000;stroke-width:5"
           d="m 50,110 c 0,11.04569 -8.954305,20 -20,20 -11.045695,0 -20,-8.95431 -20,-20 0,-11.045695 8.954305,-20 20,-20 11.045695,0 20,8.954305 20,20 z" />
        <text
           x="30"
           y="117"
           id="svgt-1"
           font-size="24"
           xml:space="preserve"
           style="font-size:24px;text-anchor:middle;fill:#ffffff;stroke:#ffffff;stroke-width:0;font-family:serif">1</text>
        <line
           x1="190"
           y1="110"
           x2="110"
           y2="30"
           id="line3416"
           style="fill:none;stroke:#000000;stroke-width:3" />
        <!-- leaf -->
        <!-- leaf -->
        <ellipse
           rx="20"
           ry="20"
           id="svg190110"
           cx="190"
           cy="110"
           sodipodi:cx="190"
           sodipodi:cy="110"
           sodipodi:rx="20"
           sodipodi:ry="20"
           style="fill:#000000;stroke:#000000;stroke-width:5"
           d="m 210,110 c 0,11.04569 -8.95431,20 -20,20 -11.04569,0 -20,-8.95431 -20,-20 0,-11.045695 8.95431,-20 20,-20 11.04569,0 20,8.954305 20,20 z" />
        <text
           x="190"
           y="117"
           id="text3419"
           font-size="24"
           xml:space="preserve"
           style="font-size:24px;text-anchor:middle;fill:#ffffff;stroke:#ffffff;stroke-width:0;font-family:serif">3</text>
        <ellipse
           rx="20"
           ry="20"
           id="svg11030"
           cx="110"
           cy="30"
           sodipodi:cx="110"
           sodipodi:cy="30"
           sodipodi:rx="20"
           sodipodi:ry="20"
           style="fill:#000000;stroke:#000000;stroke-width:5"
           d="m 130,30 c 0,11.045695 -8.95431,20 -20,20 -11.045695,0 -20,-8.954305 -20,-20 0,-11.045695 8.954305,-20 20,-20 11.04569,0 20,8.954305 20,20 z" />
        <text
           x="110"
           y="37"
           id="text3422"
           font-size="24"
           xml:space="preserve"
           style="font-size:24px;text-anchor:middle;fill:#ffffff;stroke:#ffffff;stroke-width:0;font-family:serif">2</text>
      </g>
      <g
         id="g3543"
         transform="translate(455.71429,170.93361)">
        <title
           id="title3545">RBT</title>
        <line
           x1="30"
           y1="110"
           x2="110"
           y2="30"
           id="svg_1-2"
           style="fill:none;stroke:#000000;stroke-width:3" />
        <!-- leaf -->
        <!-- leaf -->
        <ellipse
           rx="20"
           ry="20"
           id="svg30110-6"
           cx="30"
           cy="110"
           sodipodi:cx="30"
           sodipodi:cy="110"
           sodipodi:rx="20"
           sodipodi:ry="20"
           style="fill:#000000;stroke:#000000;stroke-width:5"
           d="m 50,110 c 0,11.04569 -8.954305,20 -20,20 -11.045695,0 -20,-8.95431 -20,-20 0,-11.045695 8.954305,-20 20,-20 11.045695,0 20,8.954305 20,20 z" />
        <text
           x="30"
           y="117"
           id="svgt-7"
           font-size="24"
           xml:space="preserve"
           style="font-size:24px;text-anchor:middle;fill:#ffffff;stroke:#ffffff;stroke-width:0;font-family:serif">1</text>
        <line
           x1="190"
           y1="110"
           x2="110"
           y2="30"
           id="line3550"
           style="fill:none;stroke:#000000;stroke-width:3" />
        <!-- leaf -->
        <line
           x1="270"
           y1="190"
           x2="190"
           y2="110"
           id="line3552"
           style="fill:none;stroke:#000000;stroke-width:3" />
        <!-- leaf -->
        <!-- leaf -->
        <ellipse
           rx="20"
           ry="20"
           id="svg270190"
           cx="270"
           cy="190"
           sodipodi:cx="270"
           sodipodi:cy="190"
           sodipodi:rx="20"
           sodipodi:ry="20"
           style="fill:#7f0000;stroke:#7f0000;stroke-width:5"
           d="m 290,190 c 0,11.04569 -8.95431,20 -20,20 -11.04569,0 -20,-8.95431 -20,-20 0,-11.04569 8.95431,-20 20,-20 11.04569,0 20,8.95431 20,20 z" />
        <text
           x="270"
           y="197"
           id="text3555"
           font-size="24"
           xml:space="preserve"
           style="font-size:24px;text-anchor:middle;fill:#ffffff;stroke:#ffffff;stroke-width:0;font-family:serif">4</text>
        <ellipse
           rx="20"
           ry="20"
           id="svg190110-7"
           cx="190"
           cy="110"
           sodipodi:cx="190"
           sodipodi:cy="110"
           sodipodi:rx="20"
           sodipodi:ry="20"
           style="fill:#000000;stroke:#000000;stroke-width:5"
           d="m 210,110 c 0,11.04569 -8.95431,20 -20,20 -11.04569,0 -20,-8.95431 -20,-20 0,-11.045695 8.95431,-20 20,-20 11.04569,0 20,8.954305 20,20 z" />
        <text
           x="190"
           y="117"
           id="text3558"
           font-size="24"
           xml:space="preserve"
           style="font-size:24px;text-anchor:middle;fill:#ffffff;stroke:#ffffff;stroke-width:0;font-family:serif">3</text>
        <ellipse
           rx="20"
           ry="20"
           id="svg11030-8"
           cx="110"
           cy="30"
           sodipodi:cx="110"
           sodipodi:cy="30"
           sodipodi:rx="20"
           sodipodi:ry="20"
           style="fill:#000000;stroke:#000000;stroke-width:5"
           d="m 130,30 c 0,11.045695 -8.95431,20 -20,20 -11.045695,0 -20,-8.954305 -20,-20 0,-11.045695 8.954305,-20 20,-20 11.04569,0 20,8.954305 20,20 z" />
        <text
           x="110"
           y="37"
           id="text3561"
           font-size="24"
           xml:space="preserve"
           style="font-size:24px;text-anchor:middle;fill:#ffffff;stroke:#ffffff;stroke-width:0;font-family:serif">2</text>
      </g>
    </g>
  </g>
</svg>
